<svg xmlns="http://www.w3.org/2000/svg" viewBox="0 0 320 220" role="img" aria-labelledby="title desc">
  <title id="title">Basketball and Tank</title>
  <desc id="desc">A stylized basketball next to a tank silhouette.</desc>
  <defs>
    <linearGradient id="bg" x1="0" y1="0" x2="1" y2="1">
      <stop offset="0%" stop-color="#fdfaf4" />
      <stop offset="100%" stop-color="#e7f1df" />
    </linearGradient>
  </defs>
  <rect x="4" y="4" width="312" height="212" rx="24" fill="url(#bg)" stroke="#7ba88f" stroke-width="4" />

  <circle cx="94" cy="102" r="50" fill="#d97724" stroke="#9c4f18" stroke-width="5" />
  <path d="M44 102h100" stroke="#602a0d" stroke-width="5" fill="none" />
  <path d="M94 52v100" stroke="#602a0d" stroke-width="5" fill="none" />
  <path d="M58 66c16 14 16 58 0 72" stroke="#602a0d" stroke-width="4" fill="none" />
  <path d="M130 66c-16 14 -16 58 0 72" stroke="#602a0d" stroke-width="4" fill="none" />

  <g transform="translate(145 85)">
    <rect x="18" y="44" width="132" height="30" rx="9" fill="#355c4d" />
    <rect x="52" y="18" width="58" height="32" rx="8" fill="#355c4d" />
    <rect x="104" y="28" width="86" height="10" rx="5" fill="#2f4f41" />
    <circle cx="38" cy="78" r="16" fill="#223a31" />
    <circle cx="74" cy="78" r="16" fill="#223a31" />
    <circle cx="110" cy="78" r="16" fill="#223a31" />
    <circle cx="146" cy="78" r="16" fill="#223a31" />
  </g>

  <text x="161" y="196" text-anchor="middle" font-family="Space Grotesk, Arial, sans-serif" font-weight="700" font-size="22" fill="#243a30">
    Race to the Tank
  </text>
</svg>
